<svg width="6" height="9" viewBox="0 0 6 9" fill="none" xmlns="http://www.w3.org/2000/svg">
<path id="Vector" d="M5.00683 4.47348C5.00746 4.58315 4.98644 4.69187 4.94497 4.7934C4.9035 4.89493 4.8424 4.98728 4.76516 5.06515L1.43183 8.39848C1.27491 8.5554 1.06208 8.64355 0.840161 8.64355C0.618243 8.64355 0.405414 8.5554 0.248494 8.39848C0.0915742 8.24156 0.00341797 8.02873 0.00341797 7.80681C0.00341797 7.58489 0.0915742 7.37206 0.248494 7.21514L2.99849 4.47348L0.256828 1.73181C0.120306 1.57239 0.0489668 1.36733 0.0570677 1.1576C0.0651687 0.947871 0.152113 0.748921 0.300525 0.600509C0.448937 0.452097 0.647886 0.365154 0.857616 0.357054C1.06735 0.348952 1.27241 0.42029 1.43183 0.556811L4.76516 3.89015C4.91911 4.04536 5.00591 4.25486 5.00683 4.47348Z" fill="#595A6C"/>
</svg>
