<svg width="16" height="17" viewBox="0 0 16 17" fill="none" xmlns="http://www.w3.org/2000/svg">
<g id="cogwheel 2" clip-path="url(#clip0_306_4754)">
<g id="Group">
<path id="Vector" d="M8 11C9.38071 11 10.5 9.88071 10.5 8.5C10.5 7.11929 9.38071 6 8 6C6.61929 6 5.5 7.11929 5.5 8.5C5.5 9.88071 6.61929 11 8 11Z" stroke="white" stroke-linecap="round" stroke-linejoin="round"/>
<path id="Vector_2" d="M15.5 9.5V7.5L13.323 7.137C13.192 6.625 12.991 6.143 12.728 5.7L14.011 3.904L12.596 2.49L10.8 3.772C10.357 3.509 9.875 3.308 9.363 3.177L9 1H7L6.637 3.177C6.125 3.308 5.643 3.509 5.2 3.772L3.404 2.49L1.99 3.904L3.272 5.7C3.009 6.143 2.808 6.625 2.677 7.137L0.5 7.5V9.5L2.677 9.863C2.808 10.375 3.009 10.857 3.272 11.3L1.99 13.096L3.404 14.51L5.2 13.228C5.643 13.491 6.125 13.692 6.637 13.823L7 16H9L9.363 13.823C9.875 13.692 10.357 13.491 10.8 13.228L12.596 14.511L14.01 13.097L12.728 11.3C12.991 10.857 13.192 10.375 13.323 9.863L15.5 9.5Z" stroke="white" stroke-linecap="round" stroke-linejoin="round"/>
</g>
</g>
<defs>
<clipPath id="clip0_306_4754">
<rect width="16" height="16" fill="white" transform="translate(0 0.5)"/>
</clipPath>
</defs>
</svg>
