<svg width="17" height="17" viewBox="0 0 17 17" fill="none" xmlns="http://www.w3.org/2000/svg">
<g id="date_range 1">
<g id="Group">
<path id="Vector" d="M6.1023 7.83881H4.78987V9.15125H6.1023V7.83881ZM8.72718 7.83881H7.41474V9.15125H8.72718V7.83881ZM11.3523 7.83881H10.0394V9.15125H11.3521L11.3523 7.83881ZM12.6647 3.24506H12.0085V1.93262H10.6958V3.24506H5.44608V1.93262H4.13365V3.24506H3.47721C2.74866 3.24506 2.17113 3.83574 2.17113 4.55771L2.16455 13.745C2.16452 13.9174 2.19846 14.0881 2.26442 14.2473C2.33038 14.4066 2.42707 14.5513 2.54897 14.6732C2.67087 14.7951 2.81559 14.8917 2.97486 14.9577C3.13413 15.0236 3.30483 15.0575 3.47721 15.0574H12.6645C13.3862 15.0574 13.9769 14.4668 13.9769 13.745V4.55771C13.9769 3.83574 13.3862 3.24506 12.6645 3.24506H12.6647ZM12.6647 13.745H3.47721V6.52637H12.6645V13.7448L12.6647 13.745Z" fill="#A6A6A6"/>
</g>
</g>
</svg>
