<svg width="16" height="17" viewBox="0 0 16 17" fill="none" xmlns="http://www.w3.org/2000/svg">
<g id="lifering 1" clip-path="url(#clip0_3215_7435)">
<g id="Group">
<path id="Vector" d="M6.49991 2.18066C4.11691 2.74466 2.24491 4.61666 1.68091 6.99966" stroke="#E1E7F0" stroke-linecap="round" stroke-linejoin="round"/>
<path id="Vector_2" d="M14.319 6.99966C13.755 4.61666 11.883 2.74466 9.5 2.18066" stroke="#E1E7F0" stroke-linecap="round" stroke-linejoin="round"/>
<path id="Vector_3" d="M9.5 14.819C11.883 14.255 13.755 12.383 14.319 10" stroke="#E1E7F0" stroke-linecap="round" stroke-linejoin="round"/>
<path id="Vector_4" d="M1.68091 10C2.24491 12.383 4.11691 14.255 6.49991 14.819" stroke="#E1E7F0" stroke-linecap="round" stroke-linejoin="round"/>
<path id="Vector_5" d="M6.5 5.337V1H9.5V5.337" stroke="#E1E7F0" stroke-linecap="round" stroke-linejoin="round"/>
<path id="Vector_6" d="M11.1621 7H15.5001V10H11.1621" stroke="#E1E7F0" stroke-linecap="round" stroke-linejoin="round"/>
<path id="Vector_7" d="M9.5 11.6621V16.0001H6.5V11.6621" stroke="#E1E7F0" stroke-linecap="round" stroke-linejoin="round"/>
<path id="Vector_8" d="M4.838 10H0.5V7H4.838" stroke="#E1E7F0" stroke-linecap="round" stroke-linejoin="round"/>
<path id="Vector_9" d="M8 12C9.933 12 11.5 10.433 11.5 8.5C11.5 6.567 9.933 5 8 5C6.067 5 4.5 6.567 4.5 8.5C4.5 10.433 6.067 12 8 12Z" stroke="#E1E7F0" stroke-linecap="round" stroke-linejoin="round"/>
</g>
</g>
<defs>
<clipPath id="clip0_3215_7435">
<rect width="16" height="16" fill="white" transform="translate(0 0.5)"/>
</clipPath>
</defs>
</svg>
