<svg width="126" height="24" viewBox="0 0 126 24" fill="none" xmlns="http://www.w3.org/2000/svg">
<g id="Logos" clip-path="url(#clip0_306_4701)">
<path id="Vector" d="M88.6202 18.8103V14.1203H98.7502V9.81027H88.6202V5.15027H99.8802V0.655273H83.5752V23.2753H100.235V18.8103H88.6202Z" fill="white"/>
<g id="Group">
<path id="Vector_2" d="M5.155 11.24C5.62 10.76 6.18 10.385 6.8 10.135C7.42 9.88496 8.085 9.76996 8.75 9.79996C9.56 9.78496 10.365 9.98496 11.075 10.38C11.785 10.775 12.375 11.35 12.79 12.05L15.715 10.355C14.465 7.91496 11.945 6.58496 8.785 6.58496C3.645 6.58496 0 10.015 0 14.88C0 19.745 3.645 23.205 8.785 23.205C11.955 23.205 14.465 21.845 15.715 19.41L12.79 17.705C12.375 18.405 11.785 18.98 11.075 19.375C10.365 19.77 9.565 19.97 8.75 19.95C8.085 19.975 7.42 19.86 6.8 19.615C6.18 19.365 5.62 18.99 5.155 18.51C4.69 18.03 4.33 17.46 4.1 16.835C3.87 16.21 3.775 15.54 3.82 14.875C3.775 14.21 3.87 13.54 4.1 12.915C4.33 12.29 4.69 11.715 5.155 11.24Z" fill="white"/>
<path id="Vector_3" d="M21.7351 0.445312H17.9351V22.9953H21.7351V0.445312Z" fill="white"/>
<path id="Vector_4" d="M33.0952 6.58496C28.1152 6.58496 24.4702 10.015 24.4702 14.88C24.4702 19.745 28.1152 23.205 33.0952 23.205C38.0752 23.205 41.7602 19.745 41.7602 14.88C41.7602 10.015 38.1402 6.58496 33.0952 6.58496ZM33.0952 19.955C30.3602 19.955 28.2952 17.985 28.2952 14.88C28.2952 11.775 30.3602 9.80496 33.0952 9.80496C35.8302 9.80496 37.9252 11.785 37.9252 14.88C37.9252 17.975 35.8602 19.955 33.0952 19.955Z" fill="white"/>
<path id="Vector_5" d="M56.4049 14.9755C56.4049 18.2205 54.6149 19.8605 51.9699 19.8605C49.5949 19.8605 48.1699 18.4655 48.1699 15.5205V6.81051H44.3599V16.0755C44.3599 20.9705 47.1899 23.2455 51.3449 23.2455C52.3299 23.2805 53.3099 23.0955 54.2149 22.7005C55.1199 22.3055 55.9249 21.7155 56.5699 20.9705V22.9655H60.1999V6.77051H56.3999L56.4099 14.9755H56.4049Z" fill="white"/>
<path id="Vector_6" d="M76.3701 0.445312V8.77031C75.7151 8.04031 74.9051 7.47031 74.0001 7.09031C73.0951 6.71031 72.1201 6.54031 71.1401 6.58531C66.4251 6.58531 62.9351 9.83031 62.9351 14.8803C62.9351 19.9303 66.4301 23.2053 71.1401 23.2053C72.1501 23.2553 73.1651 23.0703 74.0951 22.6753C75.0251 22.2753 75.8551 21.6703 76.5201 20.9003V22.9653H80.1701V0.445312H76.3701ZM71.6101 19.9553C68.8751 19.9553 66.7851 17.9803 66.7851 14.8803C66.7851 11.7803 68.8751 9.80531 71.6151 9.80531C74.3551 9.80531 76.4451 11.7853 76.4451 14.8803C76.4451 17.9753 74.3351 19.9553 71.6051 19.9553H71.6101Z" fill="white"/>
</g>
<path id="Vector_7" d="M115.635 11.534L112.545 14.624L121.737 23.8164L124.827 20.7264L115.635 11.534Z" fill="white"/>
<path id="Vector_8" d="M110.82 18.9497C109.705 18.5997 108.685 17.9797 107.86 17.1547C106.975 16.2697 106.33 15.1697 105.99 13.9597C105.65 12.7547 105.63 11.4797 105.93 10.2597C106.23 9.03968 106.835 7.91968 107.69 7.00468C108.545 6.08968 109.625 5.40968 110.82 5.03468C112.015 4.65468 113.29 4.59468 114.515 4.84968C115.74 5.10468 116.88 5.67468 117.825 6.50468C118.77 7.32968 119.48 8.38468 119.9 9.56968C120.315 10.7497 120.42 12.0197 120.205 13.2547L124.555 15.3297C125.295 12.7747 125.16 10.0447 124.18 7.56968C123.195 5.09468 121.42 3.01968 119.13 1.66468C116.84 0.309679 114.16 -0.240321 111.52 0.0946788C108.88 0.429679 106.425 1.63468 104.545 3.51468C102.66 5.39468 101.46 7.84968 101.125 10.4897C100.79 13.1297 101.345 15.8047 102.695 18.0997C104.045 20.3897 106.125 22.1697 108.6 23.1497C111.075 24.1347 113.805 24.2647 116.36 23.5247L114.285 19.1697C113.13 19.3747 111.945 19.2947 110.83 18.9447L110.82 18.9497Z" fill="white"/>
</g>
<defs>
<clipPath id="clip0_306_4701">
<rect width="125.02" height="24" fill="white"/>
</clipPath>
</defs>
</svg>
