<svg width="16" height="16" viewBox="0 0 16 16" fill="none" xmlns="http://www.w3.org/2000/svg">
<g id="machine-learning 1" clip-path="url(#clip0_3215_7373)">
<g id="Group">
<path id="Vector" d="M8 9.5C8.82843 9.5 9.5 8.82843 9.5 8C9.5 7.17157 8.82843 6.5 8 6.5C7.17157 6.5 6.5 7.17157 6.5 8C6.5 8.82843 7.17157 9.5 8 9.5Z" stroke="#E1E7F0" stroke-linecap="round" stroke-linejoin="round"/>
<path id="Vector_2" d="M9.06006 3.05566L12.9401 6.93866" stroke="#E1E7F0" stroke-linecap="round" stroke-linejoin="round"/>
<path id="Vector_3" d="M3.06006 6.93866L6.94006 3.05566" stroke="#E1E7F0" stroke-linecap="round" stroke-linejoin="round"/>
<path id="Vector_4" d="M6.94006 12.9405L3.06006 9.06055" stroke="#E1E7F0" stroke-linecap="round" stroke-linejoin="round"/>
<path id="Vector_5" d="M12.9401 9.06055L9.06006 12.9405" stroke="#E1E7F0" stroke-linecap="round" stroke-linejoin="round"/>
<path id="Vector_6" d="M8 3.49512C8.82843 3.49512 9.5 2.82354 9.5 1.99512C9.5 1.16669 8.82843 0.495117 8 0.495117C7.17157 0.495117 6.5 1.16669 6.5 1.99512C6.5 2.82354 7.17157 3.49512 8 3.49512Z" stroke="#E1E7F0" stroke-linecap="round" stroke-linejoin="round"/>
<path id="Vector_7" d="M2 9.5C2.82843 9.5 3.5 8.82843 3.5 8C3.5 7.17157 2.82843 6.5 2 6.5C1.17157 6.5 0.5 7.17157 0.5 8C0.5 8.82843 1.17157 9.5 2 9.5Z" stroke="#E1E7F0" stroke-linecap="round" stroke-linejoin="round"/>
<path id="Vector_8" d="M8 15.5C8.82843 15.5 9.5 14.8284 9.5 14C9.5 13.1716 8.82843 12.5 8 12.5C7.17157 12.5 6.5 13.1716 6.5 14C6.5 14.8284 7.17157 15.5 8 15.5Z" stroke="#E1E7F0" stroke-linecap="round" stroke-linejoin="round"/>
<path id="Vector_9" d="M14 9.5C14.8284 9.5 15.5 8.82843 15.5 8C15.5 7.17157 14.8284 6.5 14 6.5C13.1716 6.5 12.5 7.17157 12.5 8C12.5 8.82843 13.1716 9.5 14 9.5Z" stroke="#E1E7F0" stroke-linecap="round" stroke-linejoin="round"/>
</g>
</g>
<defs>
<clipPath id="clip0_3215_7373">
<rect width="16" height="16" fill="white"/>
</clipPath>
</defs>
</svg>
