<svg width="24" height="24" viewBox="0 0 24 24" fill="none" xmlns="http://www.w3.org/2000/svg">
<g id="notification">
<rect width="24" height="24" fill="white" fill-opacity="0.01"/>
<path id="Vector" fill-rule="evenodd" clip-rule="evenodd" d="M6.48502 17.669C6.67074 17.8548 6.89126 18.0022 7.13396 18.1028C7.37667 18.2033 7.6368 18.2551 7.89952 18.2551C8.16223 18.2551 8.42237 18.2033 8.66507 18.1028C8.90777 18.0022 9.12829 17.8548 9.31402 17.669L6.48502 14.839C6.29906 15.0248 6.15155 15.2453 6.0509 15.4881C5.95025 15.7309 5.89844 15.9912 5.89844 16.254C5.89844 16.5169 5.95025 16.7771 6.0509 17.0199C6.15155 17.2627 6.29906 17.4833 6.48502 17.669ZM11.382 5.47803L10.657 6.20303C9.87502 6.98503 8.44702 8.01603 7.45102 8.51403L4.43402 10.023C3.93902 10.271 3.85002 10.797 4.24702 11.194L12.803 19.75C13.201 20.146 13.725 20.063 13.974 19.562L15.484 16.546C15.978 15.558 17.01 14.126 17.795 13.34L18.52 12.614C19.3432 11.7909 19.8567 10.7085 19.9733 9.55014C20.0899 8.39182 19.8026 7.22879 19.16 6.25803C19.2676 6.17186 19.3563 6.0646 19.4209 5.94284C19.4854 5.82109 19.5243 5.68741 19.5353 5.55005C19.5462 5.41268 19.5289 5.27453 19.4845 5.14409C19.44 5.01366 19.3694 4.89369 19.2768 4.79159C19.1843 4.68948 19.0719 4.60739 18.9464 4.55037C18.821 4.49334 18.6852 4.4626 18.5474 4.46002C18.4096 4.45743 18.2728 4.48307 18.1453 4.53536C18.0178 4.58764 17.9023 4.66546 17.806 4.76403C17.783 4.78903 17.76 4.81303 17.74 4.83903C16.9135 4.29099 15.9437 3.9988 14.952 3.99903C14.289 3.99823 13.6323 4.12839 13.0196 4.38202C12.407 4.63566 11.8505 5.00778 11.382 5.47703V5.47803Z" fill="white"/>
</g>
</svg>
