<svg width="24" height="25" viewBox="0 0 24 25" fill="none" xmlns="http://www.w3.org/2000/svg">
<g id="settings">
<path id="Vector" fill-rule="evenodd" clip-rule="evenodd" d="M11.6996 17.698C11.0368 17.7074 10.3788 17.585 9.76378 17.3378C9.14876 17.0907 8.58899 16.7238 8.117 16.2584C7.64501 15.793 7.27022 15.2385 7.0144 14.627C6.75859 14.0156 6.62685 13.3594 6.62685 12.6965C6.62685 12.0337 6.75859 11.3775 7.0144 10.766C7.27022 10.1546 7.64501 9.60004 8.117 9.13467C8.58899 8.66931 9.14876 8.3024 9.76378 8.05525C10.3788 7.80811 11.0368 7.68567 11.6996 7.69504C13.0262 7.69504 14.2985 8.22203 15.2365 9.16009C16.1746 10.0981 16.7016 11.3704 16.7016 12.697C16.7016 14.0237 16.1746 15.2959 15.2365 16.234C14.2985 17.172 13.0262 17.699 11.6996 17.699V17.698ZM20.0676 14.582C19.675 14.447 19.3343 14.1928 19.093 13.8549C18.8517 13.517 18.7219 13.1122 18.7216 12.697C18.7216 11.821 19.2846 11.084 20.0666 10.812C20.182 10.774 20.2787 10.6936 20.3371 10.5871C20.3956 10.4806 20.4115 10.3558 20.3816 10.238C20.1845 9.54237 19.9038 8.87315 19.5456 8.24504C19.4865 8.14553 19.3933 8.07088 19.2833 8.03501C19.1733 7.99913 19.0539 8.00448 18.9476 8.05004C18.5376 8.21582 18.0849 8.24389 17.6576 8.13004C17.3221 8.04039 17.016 7.86443 16.7696 7.61968C16.5233 7.37493 16.3454 7.06993 16.2536 6.73504C16.1369 6.30598 16.1636 5.85054 16.3296 5.43804C16.3746 5.33164 16.3795 5.21256 16.3435 5.10281C16.3074 4.99306 16.2329 4.90007 16.1336 4.84104C15.5105 4.48794 14.8475 4.21064 14.1586 4.01504C14.0409 3.98484 13.9162 4.00047 13.8096 4.05877C13.703 4.11707 13.6226 4.21367 13.5846 4.32904C13.4495 4.72165 13.1953 5.06234 12.8574 5.30361C12.5195 5.54489 12.1148 5.67473 11.6996 5.67504C11.2846 5.67474 10.8801 5.54501 10.5424 5.30391C10.2047 5.06282 9.95063 4.72238 9.81558 4.33004C9.77713 4.21469 9.69652 4.11813 9.58988 4.05972C9.48325 4.0013 9.35848 3.98534 9.24058 4.01504C8.53258 4.21504 7.86158 4.50004 7.23658 4.85704C7.13918 4.9141 7.06558 5.00431 7.02923 5.11118C6.99287 5.21804 6.99619 5.33442 7.03858 5.43904C7.18784 5.80285 7.22666 6.20257 7.15018 6.5883C7.0737 6.97404 6.88532 7.32871 6.60853 7.60805C6.33175 7.88739 5.97883 8.07903 5.59382 8.15906C5.2088 8.23908 4.80875 8.20395 4.44358 8.05804C4.33742 8.01361 4.21879 8.00898 4.10949 8.04498C4.00019 8.08099 3.90755 8.15522 3.84858 8.25404C3.49136 8.8826 3.21165 9.55215 3.01558 10.248C2.98588 10.3646 3.00106 10.4881 3.0581 10.5941C3.11515 10.7 3.20989 10.7806 3.32358 10.82C3.7106 10.9585 4.04541 11.2131 4.28222 11.5491C4.51903 11.8851 4.64628 12.286 4.64658 12.697C4.64658 13.564 4.09458 14.296 3.32258 14.574C3.20918 14.6132 3.11462 14.6935 3.05759 14.7991C3.00056 14.9046 2.98521 15.0277 3.01458 15.144C3.19063 15.7649 3.43302 16.3651 3.73758 16.934C3.79736 17.0397 3.89519 17.1186 4.01114 17.1547C4.12708 17.1907 4.25241 17.1812 4.36158 17.128C4.95658 16.855 5.70458 16.864 6.46558 17.366C6.58258 17.443 6.69058 17.551 6.76758 17.666C7.29458 18.466 7.27958 19.246 6.96558 19.854C6.90801 19.9604 6.89335 20.0847 6.92459 20.2015C6.95584 20.3183 7.03062 20.4187 7.13358 20.482C7.79552 20.8703 8.50468 21.1718 9.24358 21.379C9.36058 21.4094 9.48476 21.3939 9.59071 21.3357C9.69667 21.2775 9.77639 21.1811 9.81358 21.066C9.94752 20.672 10.2014 20.3296 10.5396 20.087C10.8777 19.8444 11.2834 19.7136 11.6996 19.713C12.5776 19.713 13.3176 20.28 13.5866 21.066C13.624 21.1809 13.7037 21.2772 13.8096 21.3354C13.9155 21.3935 14.0396 21.4091 14.1566 21.379C14.8858 21.1739 15.586 20.8772 16.2406 20.496C16.3441 20.4325 16.4193 20.3314 16.4504 20.214C16.4815 20.0965 16.4661 19.9715 16.4076 19.865C16.0896 19.257 16.0706 18.472 16.5986 17.67C16.6756 17.554 16.7836 17.445 16.9006 17.368C17.6726 16.857 18.4276 16.855 19.0256 17.138C19.1347 17.1927 19.2606 17.2035 19.3774 17.1682C19.4942 17.1328 19.5931 17.054 19.6536 16.948C19.9605 16.3785 20.2046 15.7773 20.3816 15.155C20.4117 15.0375 20.3961 14.9129 20.3378 14.8065C20.2795 14.7001 20.1829 14.6199 20.0676 14.582Z" fill="#606069"/>
</g>
</svg>
