<svg width="16" height="16" viewBox="0 0 16 16" fill="none" xmlns="http://www.w3.org/2000/svg">
<g id="users-mm 1">
<g id="Group">
<path id="Vector" d="M9.775 11.2934L7.312 10.5934C7.2191 10.567 7.13585 10.5142 7.07232 10.4414C7.00879 10.3687 6.96769 10.2791 6.954 10.1834L6.747 8.72643C7.26955 8.48762 7.71254 8.10377 8.0233 7.62053C8.33405 7.13729 8.49951 6.57497 8.5 6.00043V4.62643C8.51213 3.83088 8.21632 3.06142 7.67439 2.47887C7.13246 1.89631 6.38636 1.54575 5.592 1.50043C5.19036 1.48811 4.79034 1.5566 4.41568 1.70184C4.04101 1.84708 3.69935 2.0661 3.41095 2.34591C3.12256 2.62573 2.89332 2.96062 2.73683 3.33073C2.58035 3.70084 2.49981 4.09861 2.5 4.50043V6.00043C2.50049 6.57497 2.66595 7.13729 2.9767 7.62053C3.28746 8.10377 3.73045 8.48762 4.253 8.72643L4.046 10.1794C4.03231 10.2751 3.99121 10.3647 3.92768 10.4374C3.86415 10.5102 3.7809 10.563 3.688 10.5894L1.225 11.2894C1.01619 11.3492 0.832499 11.4752 0.701698 11.6486C0.570897 11.822 0.500096 12.0333 0.5 12.2504V14.5004H10.5V12.2544C10.4999 12.0373 10.4291 11.826 10.2983 11.6526C10.1675 11.4792 9.98381 11.3532 9.775 11.2934Z" stroke="#E1E7F0" stroke-linecap="round" stroke-linejoin="round"/>
<path id="Vector_2" d="M12.5 14.5005H15.5V11.2815C15.5 11.0585 15.4255 10.842 15.2883 10.6663C15.1512 10.4905 14.9592 10.3656 14.743 10.3115L11.826 9.58246C11.7294 9.55836 11.6423 9.506 11.5756 9.43207C11.509 9.35814 11.466 9.266 11.452 9.16746L11.247 7.72646C11.7696 7.48764 12.2125 7.1038 12.5233 6.62056C12.8341 6.13731 12.9995 5.575 13 5.00046V3.62646C13.0121 2.83091 12.7163 2.06145 12.1744 1.47889C11.6325 0.896341 10.8864 0.545775 10.092 0.500461C9.53447 0.483198 8.98316 0.621717 8.5 0.900461" stroke="#E1E7F0" stroke-linecap="round" stroke-linejoin="round"/>
</g>
</g>
</svg>
